<mxfile host="app.diagrams.net" modified="2023-11-24T06:39:03.221Z" agent="Mozilla/5.0 (Windows NT 10.0; Win64; x64) AppleWebKit/537.36 (KHTML, like Gecko) Chrome/119.0.0.0 Safari/537.36" etag="VKJ_r-_7quaZJ6yvQIEh" version="22.1.3" type="github">
  <diagram name="Page-1" id="e7e014a7-5840-1c2e-5031-d8a46d1fe8dd">
    <mxGraphModel dx="1195" dy="632" grid="1" gridSize="10" guides="1" tooltips="1" connect="1" arrows="1" fold="1" page="1" pageScale="1" pageWidth="1169" pageHeight="826" background="none" math="0" shadow="0">
      <root>
        <mxCell id="0" />
        <mxCell id="1" parent="0" />
        <mxCell id="2" value="보안관제" style="swimlane;whiteSpace=wrap;fontSize=10;" parent="1" vertex="1">
          <mxGeometry x="10" y="60" width="550" height="570" as="geometry">
            <mxRectangle x="10" y="60" width="90" height="30" as="alternateBounds" />
          </mxGeometry>
        </mxCell>
        <mxCell id="A18H9wJNIHIdyngpawvc-72" value="VE_FW 오펜스 발생" style="rounded=1;whiteSpace=wrap;html=1;fillColor=#f8cecc;strokeColor=#b85450;fontSize=10;" vertex="1" parent="2">
          <mxGeometry x="9.58" y="60" width="100" height="40" as="geometry" />
        </mxCell>
        <mxCell id="A18H9wJNIHIdyngpawvc-73" value="허용" style="rhombus;whiteSpace=wrap;html=1;rounded=1;fontSize=10;" vertex="1" parent="2">
          <mxGeometry x="19.15" y="124.61" width="80.85" height="65.39" as="geometry" />
        </mxCell>
        <mxCell id="A18H9wJNIHIdyngpawvc-74" style="edgeStyle=orthogonalEdgeStyle;rounded=0;orthogonalLoop=1;jettySize=auto;html=1;exitX=0.5;exitY=1;exitDx=0;exitDy=0;entryX=0.5;entryY=0;entryDx=0;entryDy=0;fontSize=10;" edge="1" parent="2" source="A18H9wJNIHIdyngpawvc-72" target="A18H9wJNIHIdyngpawvc-73">
          <mxGeometry relative="1" as="geometry" />
        </mxCell>
        <mxCell id="A18H9wJNIHIdyngpawvc-75" value="IPS/WAF&lt;br style=&quot;font-size: 10px;&quot;&gt;이력 확인" style="rhombus;whiteSpace=wrap;html=1;rounded=1;fontSize=10;" vertex="1" parent="2">
          <mxGeometry x="19.15" y="223.47" width="80.85" height="66.53" as="geometry" />
        </mxCell>
        <mxCell id="A18H9wJNIHIdyngpawvc-76" style="edgeStyle=orthogonalEdgeStyle;rounded=0;orthogonalLoop=1;jettySize=auto;html=1;exitX=0.5;exitY=1;exitDx=0;exitDy=0;entryX=0.5;entryY=0;entryDx=0;entryDy=0;fontSize=10;" edge="1" parent="2" source="A18H9wJNIHIdyngpawvc-73" target="A18H9wJNIHIdyngpawvc-75">
          <mxGeometry relative="1" as="geometry" />
        </mxCell>
        <mxCell id="A18H9wJNIHIdyngpawvc-77" value="Yes" style="text;html=1;align=center;verticalAlign=middle;resizable=0;points=[];autosize=1;strokeColor=none;fillColor=none;fontSize=10;" vertex="1" parent="2">
          <mxGeometry x="28.290258449304176" y="191.76165803108807" width="40" height="30" as="geometry" />
        </mxCell>
        <mxCell id="A18H9wJNIHIdyngpawvc-78" value="No" style="text;html=1;align=center;verticalAlign=middle;resizable=0;points=[];autosize=1;strokeColor=none;fillColor=none;fontSize=10;" vertex="1" parent="2">
          <mxGeometry x="110.59642147117296" y="134.8704663212435" width="40" height="30" as="geometry" />
        </mxCell>
        <mxCell id="A18H9wJNIHIdyngpawvc-79" value="평판 조회" style="rhombus;whiteSpace=wrap;html=1;rounded=1;fontSize=10;" vertex="1" parent="2">
          <mxGeometry x="359.8" y="124.61" width="80.2" height="65.39" as="geometry" />
        </mxCell>
        <mxCell id="A18H9wJNIHIdyngpawvc-80" style="edgeStyle=orthogonalEdgeStyle;rounded=0;orthogonalLoop=1;jettySize=auto;html=1;exitX=1;exitY=0.5;exitDx=0;exitDy=0;entryX=0;entryY=0.5;entryDx=0;entryDy=0;fontSize=10;" edge="1" parent="2" source="A18H9wJNIHIdyngpawvc-73" target="A18H9wJNIHIdyngpawvc-79">
          <mxGeometry relative="1" as="geometry">
            <mxPoint x="165.4671968190855" y="161.91709844559585" as="targetPoint" />
          </mxGeometry>
        </mxCell>
        <mxCell id="A18H9wJNIHIdyngpawvc-81" value="방화벽 차단" style="rounded=1;whiteSpace=wrap;html=1;fontSize=10;glass=0;strokeWidth=1;shadow=0;" vertex="1" parent="2">
          <mxGeometry x="363.23" y="242.79" width="73.34" height="27.88" as="geometry" />
        </mxCell>
        <mxCell id="A18H9wJNIHIdyngpawvc-82" value="Yes" style="text;html=1;align=center;verticalAlign=middle;resizable=0;points=[];autosize=1;strokeColor=none;fillColor=none;fontSize=10;" vertex="1" parent="2">
          <mxGeometry x="110.59642147117296" y="229.06735751295335" width="40" height="30" as="geometry" />
        </mxCell>
        <mxCell id="A18H9wJNIHIdyngpawvc-83" value="악성" style="text;html=1;align=center;verticalAlign=middle;resizable=0;points=[];autosize=1;strokeColor=none;fillColor=none;fontSize=10;" vertex="1" parent="2">
          <mxGeometry x="403.2405566600398" y="199.22279792746113" width="40" height="30" as="geometry" />
        </mxCell>
        <mxCell id="A18H9wJNIHIdyngpawvc-84" style="edgeStyle=orthogonalEdgeStyle;rounded=0;orthogonalLoop=1;jettySize=auto;html=1;exitX=0.5;exitY=1;exitDx=0;exitDy=0;fontSize=10;" edge="1" parent="2" source="A18H9wJNIHIdyngpawvc-79" target="A18H9wJNIHIdyngpawvc-81">
          <mxGeometry relative="1" as="geometry" />
        </mxCell>
        <mxCell id="A18H9wJNIHIdyngpawvc-85" style="edgeStyle=orthogonalEdgeStyle;rounded=0;orthogonalLoop=1;jettySize=auto;html=1;exitX=1;exitY=0.5;exitDx=0;exitDy=0;entryX=0;entryY=0.5;entryDx=0;entryDy=0;fontSize=10;" edge="1" parent="2" source="A18H9wJNIHIdyngpawvc-86" target="A18H9wJNIHIdyngpawvc-81">
          <mxGeometry relative="1" as="geometry" />
        </mxCell>
        <mxCell id="A18H9wJNIHIdyngpawvc-86" value="IPS&amp;amp;WAF&lt;br style=&quot;font-size: 10px;&quot;&gt;오펜스/이벤트" style="rounded=1;whiteSpace=wrap;html=1;fillColor=#f8cecc;strokeColor=#b85450;fontSize=10;" vertex="1" parent="2">
          <mxGeometry x="192.9" y="201.09" width="107.1" height="38.91" as="geometry" />
        </mxCell>
        <mxCell id="A18H9wJNIHIdyngpawvc-87" style="edgeStyle=orthogonalEdgeStyle;rounded=0;orthogonalLoop=1;jettySize=auto;html=1;exitX=1;exitY=0.5;exitDx=0;exitDy=0;entryX=0;entryY=0.5;entryDx=0;entryDy=0;fontSize=10;" edge="1" parent="2" source="A18H9wJNIHIdyngpawvc-75" target="A18H9wJNIHIdyngpawvc-86">
          <mxGeometry relative="1" as="geometry" />
        </mxCell>
        <mxCell id="A18H9wJNIHIdyngpawvc-88" style="edgeStyle=orthogonalEdgeStyle;rounded=0;orthogonalLoop=1;jettySize=auto;html=1;exitX=0.5;exitY=1;exitDx=0;exitDy=0;entryX=1;entryY=0.5;entryDx=0;entryDy=0;fontSize=10;" edge="1" parent="2" source="A18H9wJNIHIdyngpawvc-89" target="A18H9wJNIHIdyngpawvc-79">
          <mxGeometry relative="1" as="geometry">
            <Array as="points">
              <mxPoint x="64.87077534791253" y="410" />
              <mxPoint x="470" y="410" />
              <mxPoint x="470" y="161.91709844559585" />
            </Array>
          </mxGeometry>
        </mxCell>
        <mxCell id="A18H9wJNIHIdyngpawvc-89" value="내부 방화벽&lt;br style=&quot;font-size: 10px;&quot;&gt;허용 여부" style="rhombus;whiteSpace=wrap;html=1;rounded=1;fontSize=10;" vertex="1" parent="2">
          <mxGeometry x="19.15" y="326.06" width="80.85" height="63.94" as="geometry" />
        </mxCell>
        <mxCell id="A18H9wJNIHIdyngpawvc-90" style="edgeStyle=orthogonalEdgeStyle;rounded=0;orthogonalLoop=1;jettySize=auto;html=1;exitX=0.5;exitY=1;exitDx=0;exitDy=0;entryX=0.5;entryY=0;entryDx=0;entryDy=0;fontSize=10;" edge="1" parent="2" source="A18H9wJNIHIdyngpawvc-75" target="A18H9wJNIHIdyngpawvc-89">
          <mxGeometry relative="1" as="geometry">
            <mxPoint x="92.3061630218688" y="354.04145077720193" as="targetPoint" />
          </mxGeometry>
        </mxCell>
        <mxCell id="A18H9wJNIHIdyngpawvc-91" style="edgeStyle=orthogonalEdgeStyle;rounded=0;orthogonalLoop=1;jettySize=auto;html=1;exitX=1;exitY=0.5;exitDx=0;exitDy=0;fontSize=10;" edge="1" parent="2" source="A18H9wJNIHIdyngpawvc-92" target="A18H9wJNIHIdyngpawvc-81">
          <mxGeometry relative="1" as="geometry" />
        </mxCell>
        <mxCell id="A18H9wJNIHIdyngpawvc-98" style="edgeStyle=orthogonalEdgeStyle;rounded=0;orthogonalLoop=1;jettySize=auto;html=1;exitX=1;exitY=1;exitDx=0;exitDy=0;" edge="1" parent="2" source="A18H9wJNIHIdyngpawvc-92">
          <mxGeometry relative="1" as="geometry">
            <mxPoint x="520" y="290" as="targetPoint" />
          </mxGeometry>
        </mxCell>
        <mxCell id="A18H9wJNIHIdyngpawvc-92" value="내부 스캔 이벤트 발생" style="rounded=1;whiteSpace=wrap;html=1;fillColor=#f8cecc;strokeColor=#b85450;fontSize=10;" vertex="1" parent="2">
          <mxGeometry x="192.9" y="266.37" width="107.1" height="33.63" as="geometry" />
        </mxCell>
        <mxCell id="A18H9wJNIHIdyngpawvc-93" value="No" style="text;html=1;align=center;verticalAlign=middle;resizable=0;points=[];autosize=1;strokeColor=none;fillColor=none;fontSize=10;" vertex="1" parent="2">
          <mxGeometry x="28.290258449304176" y="298.0829015544041" width="40" height="30" as="geometry" />
        </mxCell>
        <mxCell id="A18H9wJNIHIdyngpawvc-94" value="Yes" style="text;html=1;align=center;verticalAlign=middle;resizable=0;points=[];autosize=1;strokeColor=none;fillColor=none;fontSize=10;" vertex="1" parent="2">
          <mxGeometry x="110.59642147117296" y="329.7927461139896" width="40" height="30" as="geometry" />
        </mxCell>
        <mxCell id="A18H9wJNIHIdyngpawvc-95" value="No" style="text;html=1;align=center;verticalAlign=middle;resizable=0;points=[];autosize=1;strokeColor=none;fillColor=none;fontSize=10;" vertex="1" parent="2">
          <mxGeometry x="110.59642147117296" y="378.2901554404145" width="40" height="30" as="geometry" />
        </mxCell>
        <mxCell id="A18H9wJNIHIdyngpawvc-96" style="edgeStyle=orthogonalEdgeStyle;rounded=0;orthogonalLoop=1;jettySize=auto;html=1;exitX=1;exitY=0.5;exitDx=0;exitDy=0;entryX=0;entryY=0.5;entryDx=0;entryDy=0;fontSize=10;" edge="1" parent="2" source="A18H9wJNIHIdyngpawvc-75" target="A18H9wJNIHIdyngpawvc-92">
          <mxGeometry relative="1" as="geometry" />
        </mxCell>
        <mxCell id="A18H9wJNIHIdyngpawvc-97" style="edgeStyle=orthogonalEdgeStyle;rounded=0;orthogonalLoop=1;jettySize=auto;html=1;exitX=1;exitY=0.5;exitDx=0;exitDy=0;entryX=0.5;entryY=1;entryDx=0;entryDy=0;fontSize=10;" edge="1" parent="2" source="A18H9wJNIHIdyngpawvc-89" target="A18H9wJNIHIdyngpawvc-92">
          <mxGeometry relative="1" as="geometry" />
        </mxCell>
        <mxCell id="3" value="보안팀" style="swimlane;whiteSpace=wrap;fontSize=10;" parent="1" vertex="1">
          <mxGeometry x="560" y="60" width="280" height="570" as="geometry" />
        </mxCell>
        <mxCell id="13" value="" style="ellipse;shape=startState;fillColor=#000000;strokeColor=#ff0000;fontSize=10;" parent="3" vertex="1">
          <mxGeometry x="60" y="40" width="30" height="30" as="geometry" />
        </mxCell>
        <mxCell id="14" value="" style="edgeStyle=elbowEdgeStyle;elbow=horizontal;verticalAlign=bottom;endArrow=open;endSize=8;strokeColor=#FF0000;endFill=1;rounded=0;fontSize=10;" parent="3" source="13" target="15" edge="1">
          <mxGeometry x="40" y="20" as="geometry">
            <mxPoint x="55" y="90" as="targetPoint" />
          </mxGeometry>
        </mxCell>
        <mxCell id="15" value="idle" style="fontSize=10;" parent="3" vertex="1">
          <mxGeometry x="20" y="110" width="110" height="50" as="geometry" />
        </mxCell>
        <mxCell id="16" value="check for &#xa;new commands" style="fontSize=10;" parent="3" vertex="1">
          <mxGeometry x="20" y="220" width="110" height="50" as="geometry" />
        </mxCell>
        <mxCell id="17" value="" style="endArrow=open;strokeColor=#FF0000;endFill=1;rounded=0;fontSize=10;" parent="3" source="15" target="16" edge="1">
          <mxGeometry relative="1" as="geometry" />
        </mxCell>
        <mxCell id="18" value="command queue" style="fontSize=10;" parent="3" vertex="1">
          <mxGeometry x="20" y="325" width="110" height="50" as="geometry" />
        </mxCell>
        <mxCell id="19" value="" style="endArrow=open;strokeColor=#FF0000;endFill=1;rounded=0;fontSize=10;" parent="3" source="16" target="18" edge="1">
          <mxGeometry relative="1" as="geometry" />
        </mxCell>
        <mxCell id="21" value="queue empty" style="rhombus;fillColor=#ffffc0;strokeColor=#ff0000;fontSize=10;" parent="3" vertex="1">
          <mxGeometry x="150" y="225" width="80" height="40" as="geometry" />
        </mxCell>
        <mxCell id="22" value="yes" style="edgeStyle=elbowEdgeStyle;elbow=horizontal;align=left;verticalAlign=bottom;endArrow=open;endSize=8;strokeColor=#FF0000;exitX=0.5;exitY=0;endFill=1;rounded=0;entryX=0.75;entryY=0.5;entryPerimeter=0;fontSize=10;" parent="3" source="21" target="25" edge="1">
          <mxGeometry x="-1" relative="1" as="geometry">
            <mxPoint x="160" y="150" as="targetPoint" />
            <Array as="points">
              <mxPoint x="190" y="180" />
            </Array>
          </mxGeometry>
        </mxCell>
        <mxCell id="23" value="no" style="edgeStyle=elbowEdgeStyle;elbow=horizontal;align=left;verticalAlign=top;endArrow=open;endSize=8;strokeColor=#FF0000;endFill=1;rounded=0;fontSize=10;" parent="3" source="21" target="30" edge="1">
          <mxGeometry x="-1" relative="1" as="geometry">
            <mxPoint x="190" y="305" as="targetPoint" />
          </mxGeometry>
        </mxCell>
        <mxCell id="24" value="" style="endArrow=open;strokeColor=#FF0000;endFill=1;rounded=0;fontSize=10;" parent="3" source="16" target="21" edge="1">
          <mxGeometry relative="1" as="geometry" />
        </mxCell>
        <mxCell id="25" value="" style="shape=line;strokeWidth=6;strokeColor=#ff0000;rotation=90;fontSize=10;" parent="3" vertex="1">
          <mxGeometry x="130" y="127.5" width="50" height="15" as="geometry" />
        </mxCell>
        <mxCell id="26" value="" style="edgeStyle=elbowEdgeStyle;elbow=horizontal;verticalAlign=bottom;endArrow=open;endSize=8;strokeColor=#FF0000;endFill=1;rounded=0;fontSize=10;" parent="3" source="25" target="15" edge="1">
          <mxGeometry x="130" y="90" as="geometry">
            <mxPoint x="230" y="140" as="targetPoint" />
          </mxGeometry>
        </mxCell>
        <mxCell id="30" value="dispatch&#xa;command&#xa;worker thread" style="fontSize=10;" parent="3" vertex="1">
          <mxGeometry x="140" y="325" width="110" height="50" as="geometry" />
        </mxCell>
        <mxCell id="31" value="critical&#xa;section" style="shape=note;whiteSpace=wrap;size=17;fontSize=10;" parent="3" vertex="1">
          <mxGeometry x="105" y="490" width="100" height="50" as="geometry" />
        </mxCell>
        <mxCell id="32" value="" style="endArrow=none;strokeColor=#FF0000;endFill=0;rounded=0;dashed=1;fontSize=10;" parent="3" source="18" target="31" edge="1">
          <mxGeometry relative="1" as="geometry" />
        </mxCell>
        <mxCell id="34" value="" style="whiteSpace=wrap;strokeColor=#FF0000;fillColor=#FF0000;fontSize=10;" parent="3" vertex="1">
          <mxGeometry x="245" y="395" width="5" height="45" as="geometry" />
        </mxCell>
        <mxCell id="41" value="" style="edgeStyle=elbowEdgeStyle;elbow=horizontal;entryX=0;entryY=0.5;strokeColor=#FF0000;endArrow=open;endFill=1;rounded=0;fontSize=10;" parent="3" source="30" target="34" edge="1">
          <mxGeometry width="100" height="100" relative="1" as="geometry">
            <mxPoint x="60" y="480" as="sourcePoint" />
            <mxPoint x="160" y="380" as="targetPoint" />
            <Array as="points">
              <mxPoint x="195" y="400" />
            </Array>
          </mxGeometry>
        </mxCell>
      </root>
    </mxGraphModel>
  </diagram>
</mxfile>
